# xmcd
#
# Track frame offsets: 
#        150
#        27914
#        44047
#        59635
#        82471
#        98254
#        119574
#        147647
#        168521
#        184080
#        199314
#        219766
#        237932
#        254930
#        269781
#
# Disc length: 3835 seconds
#
# Revision: 0
# Processed by: cddbd v1.4PL0 Copyright (c) Steve Scherf et al.
# Submitted via: ExactAudioCopy v0.90a11
#
DISCID=f60ef90f
DTITLE=Techno Party 3 - Techno Party 3
DYEAR=1900
DGENRE=
TTITLE0=Daft Punk-One More Time
TTITLE1=Charlie Jackson-Lets Play DJ
TTITLE2=Marck Uc-Isha Allah
TTITLE3=Charlie Jacson-Set Me Free
TTITLE4=Alice DJ-Better Alone 2002
TTITLE5=Bad Block-Don't Stop
TTITLE6=Aron Carter-I'm All About You
TTITLE7=West Life-World Of Our You
TTITLE8=BSB-Megamix
TTITLE9=Charlye Jackson-The Book And Table
TTITLE10=Robson Vidal-The Return
TTITLE11=Pink-Get Read Starded Party
TTITLE12=Julio's Mix-In The House
TTITLE13=Phenomena-Mega Classic Rock
TTITLE14=MP3-House party
EXTD=
EXTT0=
EXTT1=
EXTT2=
EXTT3=
EXTT4=
EXTT5=
EXTT6=
EXTT7=
EXTT8=
EXTT9=
EXTT10=
EXTT11=
EXTT12=
EXTT13=
EXTT14=
PLAYORDER=
